<mxfile host="65bd71144e">
    <diagram id="sbQXqiVwsEsuR7p5tGj3" name="Page-1">
        <mxGraphModel dx="1038" dy="563" grid="1" gridSize="10" guides="1" tooltips="1" connect="1" arrows="1" fold="1" page="1" pageScale="1" pageWidth="850" pageHeight="1100" math="0" shadow="0">
            <root>
                <mxCell id="0"/>
                <mxCell id="1" parent="0"/>
                <mxCell id="nult8Mgce-UnOFnIGOTV-1" value="" style="rounded=0;whiteSpace=wrap;html=1;" parent="1" vertex="1">
                    <mxGeometry x="15" y="40" width="820" height="500" as="geometry"/>
                </mxCell>
                <mxCell id="nult8Mgce-UnOFnIGOTV-4" value="" style="rounded=0;whiteSpace=wrap;html=1;" parent="1" vertex="1">
                    <mxGeometry x="180" y="50" width="640" height="460" as="geometry"/>
                </mxCell>
                <mxCell id="nult8Mgce-UnOFnIGOTV-5" value="" style="rounded=0;whiteSpace=wrap;html=1;" parent="1" vertex="1">
                    <mxGeometry x="30" y="50" width="120" height="470" as="geometry"/>
                </mxCell>
                <mxCell id="nult8Mgce-UnOFnIGOTV-6" value="&lt;p style=&quot;line-height: 200%; font-size: 26px;&quot;&gt;compo to display records&amp;nbsp;&lt;/p&gt;" style="text;strokeColor=none;align=center;fillColor=none;html=1;verticalAlign=middle;whiteSpace=wrap;rounded=0;" parent="1" vertex="1">
                    <mxGeometry x="330" y="150" width="355" height="220" as="geometry"/>
                </mxCell>
                <mxCell id="nult8Mgce-UnOFnIGOTV-7" value="&lt;font style=&quot;font-size: 15px;&quot;&gt;links w/ routes to the aprop prefix&lt;/font&gt;" style="text;strokeColor=none;align=center;fillColor=none;html=1;verticalAlign=middle;whiteSpace=wrap;rounded=0;fontSize=26;rotation=-90;" parent="1" vertex="1">
                    <mxGeometry x="-40" y="280" width="260" height="40" as="geometry"/>
                </mxCell>
                <mxCell id="nult8Mgce-UnOFnIGOTV-8" value="&lt;font style=&quot;font-size: 27px;&quot;&gt;collection&lt;/font&gt;" style="text;strokeColor=none;align=center;fillColor=none;html=1;verticalAlign=middle;whiteSpace=wrap;rounded=0;fontSize=15;" parent="1" vertex="1">
                    <mxGeometry x="380" y="60" width="170" height="60" as="geometry"/>
                </mxCell>
            </root>
        </mxGraphModel>
    </diagram>
    <diagram id="f2ng9z93hxqO1t5_8rry" name="Page-2">
        <mxGraphModel dx="1038" dy="563" grid="1" gridSize="10" guides="1" tooltips="1" connect="1" arrows="1" fold="1" page="1" pageScale="1" pageWidth="850" pageHeight="1100" math="0" shadow="0">
            <root>
                <mxCell id="0"/>
                <mxCell id="1" parent="0"/>
                <mxCell id="Fzh1IzFzV5Xm0UC7kLPz-8" style="edgeStyle=none;html=1;exitX=1;exitY=0.5;exitDx=0;exitDy=0;entryX=0.053;entryY=0.563;entryDx=0;entryDy=0;entryPerimeter=0;" edge="1" parent="1" source="Fzh1IzFzV5Xm0UC7kLPz-1" target="Fzh1IzFzV5Xm0UC7kLPz-3">
                    <mxGeometry relative="1" as="geometry"/>
                </mxCell>
                <mxCell id="Fzh1IzFzV5Xm0UC7kLPz-1" value="" style="rounded=0;whiteSpace=wrap;html=1;" vertex="1" parent="1">
                    <mxGeometry x="200" y="80" width="190" height="80" as="geometry"/>
                </mxCell>
                <mxCell id="Fzh1IzFzV5Xm0UC7kLPz-2" value="" style="rounded=0;whiteSpace=wrap;html=1;" vertex="1" parent="1">
                    <mxGeometry x="360" y="240" width="190" height="80" as="geometry"/>
                </mxCell>
                <mxCell id="Fzh1IzFzV5Xm0UC7kLPz-3" value="" style="rounded=0;whiteSpace=wrap;html=1;" vertex="1" parent="1">
                    <mxGeometry x="500" y="75" width="190" height="80" as="geometry"/>
                </mxCell>
                <mxCell id="Fzh1IzFzV5Xm0UC7kLPz-4" value="search bar" style="text;strokeColor=none;align=center;fillColor=none;html=1;verticalAlign=middle;whiteSpace=wrap;rounded=0;" vertex="1" parent="1">
                    <mxGeometry x="255" y="100" width="80" height="30" as="geometry"/>
                </mxCell>
                <mxCell id="Fzh1IzFzV5Xm0UC7kLPz-5" value="records GridList" style="text;strokeColor=none;align=center;fillColor=none;html=1;verticalAlign=middle;whiteSpace=wrap;rounded=0;" vertex="1" parent="1">
                    <mxGeometry x="400" y="265" width="80" height="30" as="geometry"/>
                </mxCell>
                <mxCell id="Fzh1IzFzV5Xm0UC7kLPz-6" value="state of the input value&amp;nbsp;" style="text;strokeColor=none;align=center;fillColor=none;html=1;verticalAlign=middle;whiteSpace=wrap;rounded=0;" vertex="1" parent="1">
                    <mxGeometry x="550" y="105" width="80" height="30" as="geometry"/>
                </mxCell>
            </root>
        </mxGraphModel>
    </diagram>
</mxfile>